<svg width="20" height="22" viewBox="0 0 20 22" fill="none" xmlns="http://www.w3.org/2000/svg">
<path d="M10.3864 3.38025C10.5892 3.96096 11.0662 4.4348 11.7057 4.60514C12.3453 4.77703 12.9941 4.60513 13.4602 4.20405C13.7436 3.96093 13.9589 3.63265 14.0626 3.24551C14.1493 2.91877 14.1478 2.59048 14.0719 2.28387C13.9078 1.62729 13.4014 1.07601 12.7014 0.887083C12.0015 0.69971 11.2861 0.924232 10.8168 1.41202C6.26719 1.01714 1.95137 3.92689 0.728014 8.492C-0.0307781 11.3212 0.559221 14.1953 2.10158 16.4313C2.50111 17.009 2.96258 17.5448 3.48289 18.0264L7.92105 10.341L12.4165 14.8364L12.5048 14.8596L16.7587 7.49316C17.5964 9.11448 17.855 11.0424 17.344 12.9456C16.3932 16.4933 13.0855 18.7789 9.55787 18.5699C9.33953 18.0295 8.87806 17.5928 8.27103 17.4302C7.66399 17.2676 7.04612 17.4132 6.5862 17.774C6.26874 18.0217 6.02562 18.3717 5.91258 18.7913C5.83515 19.0809 5.82741 19.372 5.88006 19.6477C6.01323 20.3507 6.53664 20.95 7.27376 21.1467C8.01087 21.3449 8.76192 21.0863 9.22958 20.5443C13.7607 20.9144 18.0501 18.0093 19.2689 13.4613C20.0277 10.6305 19.4377 7.75796 17.8953 5.52186C17.4958 4.94426 17.0343 4.40845 16.514 3.92686L15.4842 5.71078L12.0526 11.6541L7.49365 7.09521L3.23977 14.4632C2.402 12.8403 2.14339 10.9139 2.65442 9.01074C3.59903 5.48161 6.87887 3.20059 10.3864 3.38332V3.38025ZM11.492 2.55487C11.5973 2.16154 12.0015 1.92769 12.3948 2.03299C12.7882 2.13829 13.022 2.54402 12.9167 2.9358C12.8114 3.32913 12.4072 3.56298 12.0139 3.45768C11.6205 3.35238 11.3867 2.94665 11.492 2.55487ZM8.48473 19.4789C8.37942 19.8722 7.97525 20.1045 7.58192 20.0007C7.18859 19.8954 6.95475 19.4913 7.06006 19.098C7.16536 18.7046 7.56953 18.4708 7.96286 18.5761C8.35619 18.6814 8.59003 19.0856 8.48473 19.4789Z" fill="white"/>
</svg>
