<svg width="22" height="20" viewBox="0 0 22 20" fill="none" xmlns="http://www.w3.org/2000/svg">
<path d="M1.94696 10L10.6761 14.3648C10.7949 14.4241 10.8543 14.4538 10.9165 14.4655C10.9717 14.4759 11.0283 14.4759 11.0835 14.4655C11.1458 14.4538 11.2051 14.4241 11.3239 14.3648L20.0531 10M1.94696 14.5267L10.6761 18.8915C10.7949 18.9509 10.8543 18.9806 10.9165 18.9922C10.9717 19.0026 11.0283 19.0026 11.0835 18.9922C11.1458 18.9806 11.2051 18.9509 11.3239 18.8915L20.0531 14.5267M1.94696 5.47328L10.6761 1.10852C10.7949 1.04914 10.8543 1.01945 10.9165 1.00776C10.9717 0.997412 11.0283 0.997412 11.0835 1.00776C11.1458 1.01945 11.2051 1.04914 11.3239 1.10852L20.0531 5.47328L11.3239 9.83805C11.2051 9.89743 11.1458 9.92712 11.0835 9.93881C11.0283 9.94916 10.9717 9.94916 10.9165 9.93881C10.8543 9.92712 10.7949 9.89743 10.6761 9.83805L1.94696 5.47328Z" stroke="#667085" stroke-width="2" stroke-linecap="round" stroke-linejoin="round"/>
</svg>
